<svg width="18" height="18" viewBox="0 0 18 18" fill="none" xmlns="http://www.w3.org/2000/svg">
<g id="Frame">
<path id="Vector" d="M7.19553 2.955C7.26303 2.5485 7.61553 2.25 8.02803 2.25H9.97278C10.3853 2.25 10.7378 2.5485 10.8053 2.955L10.965 3.91575C11.0123 4.19625 11.1998 4.43025 11.4488 4.56825C11.5043 4.59825 11.559 4.6305 11.6138 4.6635C11.8568 4.8105 12.1538 4.85625 12.42 4.7565L13.3328 4.4145C13.5198 4.34416 13.7258 4.34248 13.9139 4.40978C14.1021 4.47708 14.2603 4.60899 14.3603 4.782L15.3323 6.46725C15.4321 6.64028 15.4672 6.8431 15.4315 7.03962C15.3958 7.23615 15.2916 7.41363 15.1373 7.5405L14.385 8.16075C14.1653 8.34075 14.0565 8.6205 14.0618 8.90475C14.063 8.96849 14.063 9.03226 14.0618 9.096C14.0565 9.3795 14.1653 9.6585 14.3843 9.8385L15.138 10.4595C15.456 10.722 15.5385 11.175 15.333 11.532L14.3595 13.2172C14.2597 13.3902 14.1017 13.5222 13.9137 13.5896C13.7257 13.657 13.5198 13.6556 13.3328 13.5855L12.42 13.2435C12.1538 13.1438 11.8575 13.1895 11.613 13.3365C11.5587 13.3696 11.5036 13.4016 11.448 13.4325C11.1998 13.5697 11.0123 13.8037 10.965 14.0842L10.8053 15.0443C10.7378 15.4515 10.3853 15.75 9.97278 15.75H8.02728C7.61478 15.75 7.26228 15.4515 7.19478 15.045L7.03503 14.0842C6.98853 13.8037 6.80103 13.5698 6.55203 13.4318C6.49642 13.4011 6.44141 13.3693 6.38703 13.3365C6.14328 13.1895 5.84703 13.1438 5.58003 13.2435L4.66728 13.5855C4.48033 13.6556 4.27456 13.6572 4.08656 13.5899C3.89856 13.5226 3.74051 13.3908 3.64053 13.218L2.66778 11.5327C2.56799 11.3597 2.53282 11.1569 2.56852 10.9604C2.60423 10.7639 2.7085 10.5864 2.86278 10.4595L3.61578 9.83925C3.83478 9.65925 3.94353 9.3795 3.93828 9.09525C3.93711 9.03151 3.93711 8.96774 3.93828 8.904C3.94353 8.6205 3.83478 8.3415 3.61578 8.1615L2.86278 7.5405C2.70869 7.41367 2.60454 7.23633 2.56884 7.03997C2.53314 6.84361 2.56819 6.64095 2.66778 6.468L3.64053 4.78275C3.74042 4.6096 3.89854 4.47754 4.08672 4.4101C4.27489 4.34266 4.4809 4.34422 4.66803 4.4145L5.58003 4.7565C5.84703 4.85625 6.14328 4.8105 6.38703 4.6635C6.44103 4.6305 6.49653 4.59825 6.55203 4.5675C6.80103 4.43025 6.98853 4.19625 7.03503 3.91575L7.19553 2.955Z" stroke="black" stroke-width="1.5" stroke-linecap="round" stroke-linejoin="round"/>
<path id="Vector_2" d="M11.25 9C11.25 9.59674 11.0129 10.169 10.591 10.591C10.169 11.0129 9.59674 11.25 9 11.25C8.40326 11.25 7.83097 11.0129 7.40901 10.591C6.98705 10.169 6.75 9.59674 6.75 9C6.75 8.40326 6.98705 7.83097 7.40901 7.40901C7.83097 6.98705 8.40326 6.75 9 6.75C9.59674 6.75 10.169 6.98705 10.591 7.40901C11.0129 7.83097 11.25 8.40326 11.25 9Z" stroke="black" stroke-width="1.5" stroke-linecap="round" stroke-linejoin="round"/>
</g>
</svg>
