<svg width="25" height="25" viewBox="0 0 25 25" fill="none" xmlns="http://www.w3.org/2000/svg">
<g id="Frame">
<path id="Vector" d="M6.82373 12.7773H12.8237L12.8237 8.27734M12.8237 3.77734C14.0056 3.77734 15.176 4.01013 16.2679 4.46243C17.3598 4.91472 18.352 5.57766 19.1877 6.41338C20.0234 7.24911 20.6864 8.24126 21.1386 9.33319C21.5909 10.4251 21.8237 11.5954 21.8237 12.7773C21.8237 13.9592 21.5909 15.1296 21.1386 16.2215C20.6864 17.3134 20.0234 18.3056 19.1877 19.1413C18.352 19.977 17.3598 20.64 16.2679 21.0923C15.176 21.5446 14.0056 21.7773 12.8237 21.7773C10.4368 21.7773 8.1476 20.8291 6.45977 19.1413C4.77194 17.4535 3.82373 15.1643 3.82373 12.7773C3.82373 10.3904 4.77194 8.10121 6.45977 6.41338C8.1476 4.72556 10.4368 3.77734 12.8237 3.77734Z" stroke="black" stroke-width="1.5" stroke-linecap="round" stroke-linejoin="round"/>
</g>
</svg>
