<svg width="25" height="25" viewBox="0 0 25 25" fill="none" xmlns="http://www.w3.org/2000/svg">
<g id="vuesax/outline/messages">
<g id="messages">
<path id="Vector" d="M10.6047 23.2803C10.0047 23.2803 9.43474 22.9803 9.04474 22.4503L7.84476 20.8503C7.84476 20.8603 7.79475 20.8303 7.77475 20.8303H7.40475C3.98475 20.8303 1.86475 19.9003 1.86475 15.2903V11.2903C1.86475 7.08031 4.43476 5.98031 6.59476 5.79031C6.83476 5.76031 7.11475 5.75031 7.40475 5.75031H13.8047C17.4247 5.75031 19.3448 7.67031 19.3448 11.2903V15.2903C19.3448 15.5803 19.3347 15.8603 19.2947 16.1303C19.1147 18.2603 18.0147 20.8303 13.8047 20.8303H13.4048L12.1647 22.4503C11.7747 22.9803 11.2047 23.2803 10.6047 23.2803ZM7.40475 7.25031C7.17475 7.25031 6.95475 7.2603 6.74475 7.2803C4.42475 7.4803 3.36475 8.75031 3.36475 11.2903V15.2903C3.36475 18.7203 4.42475 19.3303 7.40475 19.3303H7.80475C8.25475 19.3303 8.76474 19.5803 9.04474 19.9403L10.2448 21.5503C10.4648 21.8503 10.7448 21.8503 10.9648 21.5503L12.1647 19.9503C12.4547 19.5603 12.9148 19.3303 13.4048 19.3303H13.8047C16.3447 19.3303 17.6147 18.2603 17.8047 15.9803C17.8347 15.7403 17.8448 15.5203 17.8448 15.2903V11.2903C17.8448 8.50031 16.5947 7.25031 13.8047 7.25031H7.40475Z" fill="#292D32"/>
<path id="Vector_2" d="M10.605 14.6903C10.045 14.6903 9.60498 14.2403 9.60498 13.6903C9.60498 13.1403 10.055 12.6903 10.605 12.6903C11.155 12.6903 11.605 13.1403 11.605 13.6903C11.605 14.2403 11.165 14.6903 10.605 14.6903Z" fill="#292D32"/>
<path id="Vector_3" d="M13.8047 14.6903C13.2447 14.6903 12.8047 14.2403 12.8047 13.6903C12.8047 13.1403 13.2547 12.6903 13.8047 12.6903C14.3547 12.6903 14.8047 13.1403 14.8047 13.6903C14.8047 14.2403 14.3547 14.6903 13.8047 14.6903Z" fill="#292D32"/>
<path id="Vector_4" d="M7.41455 14.6903C6.85455 14.6903 6.41455 14.2403 6.41455 13.6903C6.41455 13.1403 6.86455 12.6903 7.41455 12.6903C7.96455 12.6903 8.41455 13.1403 8.41455 13.6903C8.41455 14.2403 7.96455 14.6903 7.41455 14.6903Z" fill="#292D32"/>
<path id="Vector_5" d="M18.5549 16.7903C18.3549 16.7903 18.1549 16.7103 18.0149 16.5603C17.8549 16.4003 17.7849 16.1703 17.8149 15.9503C17.8449 15.7403 17.8549 15.5203 17.8549 15.2903V11.2903C17.8549 8.50031 16.6049 7.25031 13.8149 7.25031H7.41487C7.18487 7.25031 6.96489 7.2603 6.75489 7.2803C6.53489 7.3103 6.30488 7.23029 6.14488 7.08029C5.98488 6.92029 5.89487 6.70032 5.91487 6.48032C6.09487 4.32032 7.20487 1.75031 11.4149 1.75031H17.8149C21.4349 1.75031 23.3549 3.67031 23.3549 7.29031V11.2903C23.3549 15.5003 20.7849 16.6003 18.6249 16.7903C18.5949 16.7903 18.5749 16.7903 18.5549 16.7903ZM7.53489 5.75031H13.8049C17.4249 5.75031 19.3449 7.67031 19.3449 11.2903V15.1603C21.0449 14.7403 21.8449 13.4903 21.8449 11.2903V7.29031C21.8449 4.50031 20.5949 3.25031 17.8049 3.25031H11.4049C9.20489 3.25031 7.96489 4.05031 7.53489 5.75031Z" fill="#292D32"/>
</g>
</g>
</svg>
