<svg width="20" height="20" viewBox="0 0 20 20" fill="none" xmlns="http://www.w3.org/2000/svg">
<g id="Frame">
<path id="Vector" d="M1.87012 5.625C1.87012 12.5283 7.46678 18.125 14.3701 18.125H16.2451C16.7424 18.125 17.2193 17.9275 17.5709 17.5758C17.9226 17.2242 18.1201 16.7473 18.1201 16.25V15.1067C18.1201 14.6767 17.8276 14.3017 17.4101 14.1975L13.7243 13.2758C13.3576 13.1842 12.9726 13.3217 12.7468 13.6233L11.9385 14.7008C11.7035 15.0142 11.2976 15.1525 10.9301 15.0175C9.56585 14.5159 8.32691 13.7238 7.2991 12.696C6.27129 11.6682 5.47918 10.4293 4.97762 9.065C4.84262 8.6975 4.98095 8.29167 5.29428 8.05667L6.37178 7.24833C6.67428 7.0225 6.81095 6.63667 6.71928 6.27083L5.79762 2.585C5.7469 2.38225 5.62988 2.20225 5.46516 2.07361C5.30044 1.94498 5.09745 1.87507 4.88845 1.875H3.74512C3.24784 1.875 2.77092 2.07254 2.41929 2.42417C2.06766 2.77581 1.87012 3.25272 1.87012 3.75V5.625Z" stroke="#007AFF" stroke-width="1.5" stroke-linecap="round" stroke-linejoin="round"/>
</g>
</svg>
