<svg width="20" height="21" viewBox="0 0 20 21" fill="none" xmlns="http://www.w3.org/2000/svg">
<g id="Frame">
<path id="Vector" d="M8.74512 1.75H6.87012C6.37284 1.75 5.89592 1.94754 5.54429 2.29917C5.19266 2.65081 4.99512 3.12772 4.99512 3.625V17.375C4.99512 17.8723 5.19266 18.3492 5.54429 18.7008C5.89592 19.0525 6.37284 19.25 6.87012 19.25H13.1201C13.6174 19.25 14.0943 19.0525 14.4459 18.7008C14.7976 18.3492 14.9951 17.8723 14.9951 17.375V3.625C14.9951 3.12772 14.7976 2.65081 14.4459 2.29917C14.0943 1.94754 13.6174 1.75 13.1201 1.75H11.2451M8.74512 1.75V3H11.2451V1.75M8.74512 1.75H11.2451M8.74512 17.375H11.2451" stroke="#007AFF" stroke-width="1.5" stroke-linecap="round" stroke-linejoin="round"/>
</g>
</svg>
